<?xml version="1.0" standalone="no"?>
<!DOCTYPE svg PUBLIC "-//W3C//DTD SVG 20010904//EN"
 "http://www.w3.org/TR/2001/REC-SVG-20010904/DTD/svg10.dtd">
<svg version="1.0" xmlns="http://www.w3.org/2000/svg"
 width="564.000000pt" height="576.000000pt" viewBox="0 0 564.000000 576.000000"
 preserveAspectRatio="xMidYMid meet">

<g transform="translate(0.000000,576.000000) scale(0.100000,-0.100000)"
fill="#000000" stroke="none">
<path d="M0 2880 l0 -2880 2820 0 2820 0 0 2880 0 2880 -2820 0 -2820 0 0
-2880z m3174 2625 c423 -50 838 -201 1191 -433 597 -392 1035 -1024 1179
-1702 53 -251 60 -318 60 -615 0 -301 -9 -381 -70 -633 -125 -520 -443 -1057
-821 -1385 -95 -83 -113 -107 -114 -160 0 -29 -2 -27 -15 18 -52 177 -75 232
-135 312 -22 29 -39 54 -39 57 0 2 28 24 63 49 72 52 171 153 213 217 35 54
48 65 96 80 59 17 113 75 133 142 20 69 10 116 -32 160 -26 27 -27 30 -15 73
7 25 12 59 12 76 0 17 7 53 16 80 15 46 15 60 0 192 -9 78 -21 183 -26 232 -9
80 -16 102 -67 202 -89 177 -263 396 -336 423 -17 6 -90 41 -162 76 -159 79
-229 95 -415 96 -217 0 -378 -34 -545 -117 -77 -38 -107 -61 -212 -162 -67
-65 -139 -145 -160 -178 -21 -33 -59 -88 -85 -123 -56 -74 -74 -128 -60 -184
9 -34 5 -54 -34 -166 -33 -96 -44 -142 -44 -188 0 -71 11 -101 74 -204 25 -41
46 -79 46 -85 0 -6 -14 -22 -31 -34 -125 -92 -33 -331 127 -331 35 0 36 1 31
28 -3 15 -9 36 -12 47 -4 11 7 -4 23 -33 102 -178 217 -289 392 -377 70 -35
197 -79 263 -91 21 -3 36 -9 33 -11 -8 -9 -168 27 -257 58 -48 16 -95 29 -106
29 -23 0 -84 -101 -141 -232 -40 -92 -75 -264 -94 -453 -12 -129 -13 -129 -43
5 -52 235 -119 490 -216 828 -62 213 -119 413 -128 446 -10 32 -24 62 -32 66
-8 4 -59 17 -114 29 -55 13 -146 36 -202 52 -56 17 -108 29 -115 27 -7 -2 -26
7 -41 18 -22 18 -27 30 -27 69 0 46 1 46 48 66 107 46 112 50 224 176 12 14
58 34 119 53 54 17 99 35 99 39 0 4 -25 38 -55 76 -30 38 -55 75 -55 82 0 18
31 29 123 44 44 7 81 17 83 24 3 7 -11 55 -31 108 -20 53 -34 101 -31 105 3 5
36 19 73 32 77 25 201 84 223 106 18 17 13 21 -75 69 -87 47 -173 105 -202
137 l-23 24 123 43 c67 24 157 61 200 82 84 42 197 115 197 128 0 4 -83 43
-185 86 -102 43 -188 81 -190 85 -5 8 87 99 245 244 52 48 95 95 95 104 0 17
-33 24 -245 52 -143 19 -211 33 -208 45 2 6 63 113 136 238 74 124 131 231
128 236 -4 6 -33 0 -74 -14 -100 -35 -250 -90 -311 -115 -30 -11 -60 -19 -67
-16 -6 2 -22 49 -35 103 -20 84 -23 125 -24 290 0 119 -4 194 -10 196 -14 5
-184 -94 -267 -155 -37 -27 -104 -88 -149 -135 l-81 -87 -32 35 c-17 19 -58
73 -91 119 -63 88 -239 279 -249 270 -3 -3 -10 -48 -16 -100 -6 -52 -21 -138
-32 -190 -21 -100 -75 -250 -90 -250 -4 0 -27 12 -50 26 -64 41 -168 82 -263
104 -88 20 -149 26 -143 13 2 -5 24 -51 50 -103 52 -107 86 -218 90 -300 l3
-55 -80 -7 c-44 -3 -145 -11 -225 -18 -236 -19 -283 -24 -286 -35 -1 -5 27
-35 62 -65 81 -68 191 -199 244 -290 22 -38 40 -73 40 -78 0 -5 -92 -73 -205
-152 -113 -78 -205 -146 -205 -150 0 -7 32 -17 135 -40 83 -19 172 -68 241
-132 94 -88 93 -88 33 -145 -89 -83 -214 -214 -217 -227 -2 -9 49 -30 155 -65
87 -28 165 -56 173 -61 12 -8 9 -30 -23 -157 -20 -81 -37 -151 -37 -155 0 -12
112 -9 190 4 99 17 103 14 115 -110 6 -55 13 -104 17 -107 7 -7 125 41 145 60
10 8 4 23 -28 65 -70 93 -115 197 -159 365 -35 136 -50 217 -54 300 -3 44 -3
67 0 50 41 -283 88 -446 182 -634 63 -125 141 -197 275 -251 64 -25 81 -47 72
-89 -6 -28 -17 -32 -243 -109 -130 -44 -250 -84 -265 -88 -16 -3 -34 -16 -42
-28 -7 -11 -34 -95 -60 -186 -26 -91 -75 -266 -110 -390 -65 -227 -98 -336
-90 -290 19 110 23 98 -55 180 -375 393 -624 896 -721 1460 -30 176 -38 582
-15 755 72 525 275 1005 593 1400 100 124 307 330 433 430 375 299 827 495
1300 564 170 25 214 29 405 30 123 0 250 -5 329 -14z m-1473 -2036 c98 -49
144 -125 143 -234 0 -88 -15 -119 -52 -111 -104 24 -204 29 -299 17 -54 -7
-107 -13 -117 -14 -29 -3 -46 38 -46 108 1 193 201 320 371 234z m590 -95 c68
-20 137 -55 179 -90 31 -27 32 -30 27 -82 -7 -67 -21 -86 -62 -78 -16 3 -70
12 -120 21 -49 9 -144 20 -210 23 l-120 7 -3 70 c-3 84 11 116 58 132 51 17
187 16 251 -3z m1454 -1250 c42 -55 68 -146 62 -222 -6 -78 -52 -177 -104
-223 -119 -104 -311 -117 -438 -29 -96 66 -144 149 -145 248 0 77 0 77 160 85
115 6 241 32 306 63 29 14 74 61 74 77 0 3 4 17 10 32 8 21 13 24 28 16 11 -6
31 -27 47 -47z m372 -36 c48 -53 207 -96 387 -105 67 -3 127 -10 134 -16 37
-29 -7 -175 -76 -249 -165 -177 -474 -135 -578 78 -54 110 -31 248 56 348 l33
37 13 -36 c6 -20 20 -46 31 -57z m-1771 -545 c109 -164 273 -521 282 -613 4
-49 11 -41 -161 -198 -26 -24 -47 -49 -47 -56 0 -7 56 -66 125 -130 102 -96
125 -123 124 -144 -1 -26 -1 -26 -10 5 -6 22 -46 65 -134 143 -74 66 -125 119
-125 130 0 10 12 28 28 40 15 12 62 55 105 96 105 102 106 92 -25 384 -63 143
-144 298 -188 365 -36 54 -42 65 -36 65 3 0 31 -39 62 -87z m-735 14 c-10 -9
-11 -8 -5 6 3 10 9 15 12 12 3 -3 0 -11 -7 -18z m-40 -84 c-11 -21 -20 -35
-21 -31 0 12 33 78 38 74 2 -2 -6 -21 -17 -43z m-73 -181 c-17 -45 -33 -80
-35 -78 -2 2 10 41 27 86 18 45 34 80 36 78 2 -2 -11 -41 -28 -86z m189 -269
c-1 -54 -3 -12 -3 92 0 105 2 149 3 98 2 -51 2 -136 0 -190z m570 245 c-3 -7
-5 -2 -5 12 0 14 2 19 5 13 2 -7 2 -19 0 -25z m10 -90 c-2 -13 -4 -5 -4 17 -1
22 1 32 4 23 2 -10 2 -28 0 -40z m-848 -102 c-23 -64 -43 -115 -45 -113 -3 2
14 57 37 121 23 64 44 115 46 113 2 -2 -15 -57 -38 -121z m864 -51 c3 -78 2
-101 -3 -65 -8 57 -13 197 -6 189 2 -2 6 -58 9 -124z m-792 -240 c65 -59 119
-110 119 -114 0 -4 -16 -23 -36 -42 l-36 -34 26 39 c29 44 28 48 -34 101 -25
21 -73 66 -107 99 -52 50 -63 66 -61 91 l1 30 4 -32 c3 -26 26 -51 124 -138z
m806 43 c-3 -8 -6 -5 -6 6 -1 11 2 17 5 13 3 -3 4 -12 1 -19z m1460 16 c-3 -3
-12 -4 -19 -1 -8 3 -5 6 6 6 11 1 17 -2 13 -5z m850 -326 c-3 -8 -6 -5 -6 6
-1 11 2 17 5 13 3 -3 4 -12 1 -19z"/>
</g>
</svg>
