<?xml version="1.0" ?><svg enable-background="new 0 0 32 32" version="1.1" viewBox="0 0 32 32" xml:space="preserve" xmlns="http://www.w3.org/2000/svg" xmlns:xlink="http://www.w3.org/1999/xlink"><g id="Layer_4_copy"><g><rect height="28.75" width="28.75" x="1.625" y="1.625"/><polygon fill="#FFFFFF" opacity="0.22" points="1.625,1.625 14.667,1.625 1.625,14.347   "/></g></g><g id="Official_copy_2"><path d="M19.246,24.945h-2.383h-2.385c0,0,0.007-1.415,0-2.385c-3.264,0.703-4.175-1.789-4.175-1.789   c-0.596-1.193-1.193-1.789-1.193-1.789c-1.193-0.708,0-0.596,0-0.596c1.193,0,1.789,1.193,1.789,1.193   c1.047,1.777,2.909,1.491,3.578,1.193c0-0.596,0.261-1.498,0.596-1.789c-2.605-0.293-4.773-1.789-4.773-4.771   s0.599-3.578,1.195-4.175c-0.12-0.294-0.62-1.381,0.018-2.982c0,0,1.172,0,2.365,1.789c0.591-0.591,2.385-0.596,2.982-0.596   c0.595,0,2.39,0.005,2.981,0.596c1.193-1.789,2.368-1.789,2.368-1.789c0.638,1.601,0.139,2.688,0.018,2.982   c0.596,0.596,1.193,1.193,1.193,4.175s-2.165,4.477-4.771,4.771c0.336,0.291,0.596,1.317,0.596,1.789L19.246,24.945L19.246,24.945z   " fill="#FFFFFF" id="Cat_2_"/></g></svg>