<?xml version="1.0" ?><svg enable-background="new 0 0 32 32" version="1.1" viewBox="0 0 32 32" xml:space="preserve" xmlns="http://www.w3.org/2000/svg" xmlns:xlink="http://www.w3.org/1999/xlink"><g id="Layer_4_copy"><g><rect height="28.75" width="28.75" x="1.625" y="1.625"/><polygon fill="#FFFFFF" opacity="0.22" points="1.625,1.625 14.667,1.625 1.625,14.347   "/></g></g><g id="Official_copy_2"><path d="M23.85,14.468c0.102,0.546,0.158,1.118,0.158,1.716c0,4.668-3.125,7.988-7.845,7.988   c-4.515,0-8.172-3.657-8.172-8.172s3.657-8.172,8.172-8.172c2.207,0,4.05,0.812,5.465,2.13l-2.304,2.304v-0.005   c-0.858-0.817-1.946-1.236-3.161-1.236c-2.697,0-4.888,2.278-4.888,4.975c0,2.696,2.191,4.98,4.888,4.98   c2.446,0,4.111-1.4,4.454-3.32h-4.454v-3.187L23.85,14.468L23.85,14.468z" fill="#FFFFFF"/></g></svg>